<?xml version="1.0" encoding="utf-8"?>
<!-- Generator: Adobe Illustrator 27.5.0, SVG Export Plug-In . SVG Version: 6.00 Build 0)  -->
<svg version="1.1" id="Layer_1" xmlns="http://www.w3.org/2000/svg" xmlns:xlink="http://www.w3.org/1999/xlink" x="0px" y="0px"
	 viewBox="0 0 512 512" style="enable-background:new 0 0 512 512;" xml:space="preserve">
<style type="text/css">
	.st0{fill:#FFFFFF;}
</style>
<g id="Layer_2_00000056392757768745843080000007831066844034240685_">
	<g>
		<path class="st0" d="M103.5,207.1c15.8,0,26.4,2.9,31.6,8.8c5.3,5.8,6.5,15.9,3.8,30.1c-2.9,14.8-8.4,25.4-16.6,31.7
			c-8.2,6.3-20.7,9.5-37.5,9.5H59.4l15.5-80H103.5z M2,368.1h41.6l9.9-50.8h35.7c15.7,0,28.7-1.6,38.9-5
			c10.2-3.3,19.4-8.8,27.7-16.6c7-6.4,12.6-13.5,16.9-21.2c4.3-7.7,7.4-16.3,9.2-25.6c4.4-22.7,1.1-40.3-10-53s-28.6-19-52.7-19
			H39.2L2,368.1z"/>
		<path class="st0" d="M212.5,126.1h41.3l-9.9,50.8h36.8c23.2,0,39.1,4,47.9,12.1c8.8,8.1,11.4,21.2,7.9,39.3l-17.3,89h-42
			l16.4-84.6c1.9-9.6,1.2-16.2-2.1-19.7c-3.2-3.5-10.2-5.3-20.7-5.3h-33l-21.3,109.5h-41.3L212.5,126.1z"/>
		<path class="st0" d="M428.5,207.1c15.8,0,26.4,2.9,31.6,8.8c5.3,5.8,6.5,15.9,3.8,30.1c-2.9,14.8-8.4,25.4-16.6,31.7
			c-8.2,6.3-20.7,9.5-37.5,9.5h-25.3l15.5-80H428.5z M327,368.1h41.6l9.9-50.8h35.7c15.7,0,28.7-1.6,38.9-5
			c10.2-3.3,19.4-8.8,27.7-16.6c7-6.4,12.6-13.5,16.9-21.2c4.3-7.7,7.4-16.3,9.2-25.6c4.4-22.7,1.1-40.3-10-53
			c-11-12.6-28.6-19-52.7-19h-80.1L327,368.1z"/>
	</g>
</g>
</svg>
